<mxfile host="app.diagrams.net" agent="Mozilla/5.0 (Windows NT 10.0; Win64; x64) AppleWebKit/537.36 (KHTML, like Gecko) Chrome/133.0.0.0 Safari/537.36" version="26.1.0">
  <diagram name="Página-1" id="wSkkp7BTBSVAgogr5LL1">
    <mxGraphModel dx="1877" dy="522" grid="1" gridSize="10" guides="1" tooltips="1" connect="1" arrows="1" fold="1" page="1" pageScale="1" pageWidth="827" pageHeight="1169" math="0" shadow="0">
      <root>
        <mxCell id="0" />
        <mxCell id="1" parent="0" />
        <mxCell id="DyeuLwuIHpsMSFXkWiEa-1" value="u" style="ellipse;whiteSpace=wrap;html=1;aspect=fixed;" vertex="1" parent="1">
          <mxGeometry x="405" y="320" width="50" height="50" as="geometry" />
        </mxCell>
        <mxCell id="DyeuLwuIHpsMSFXkWiEa-2" value="Pessoa" style="rounded=0;whiteSpace=wrap;html=1;fillColor=light-dark(#FFF2CC,var(--ge-dark-color, #121212));" vertex="1" parent="1">
          <mxGeometry x="75" y="170" width="100" height="50" as="geometry" />
        </mxCell>
        <mxCell id="DyeuLwuIHpsMSFXkWiEa-5" style="edgeStyle=orthogonalEdgeStyle;rounded=0;orthogonalLoop=1;jettySize=auto;html=1;exitX=0.5;exitY=1;exitDx=0;exitDy=0;entryX=0.5;entryY=0;entryDx=0;entryDy=0;" edge="1" parent="1" source="DyeuLwuIHpsMSFXkWiEa-3" target="DyeuLwuIHpsMSFXkWiEa-1">
          <mxGeometry relative="1" as="geometry" />
        </mxCell>
        <mxCell id="DyeuLwuIHpsMSFXkWiEa-3" value="Banco" style="rounded=0;whiteSpace=wrap;html=1;fillColor=light-dark(#FFE599,var(--ge-dark-color, #121212));" vertex="1" parent="1">
          <mxGeometry x="380" y="150" width="100" height="50" as="geometry" />
        </mxCell>
        <mxCell id="DyeuLwuIHpsMSFXkWiEa-12" style="edgeStyle=orthogonalEdgeStyle;rounded=0;orthogonalLoop=1;jettySize=auto;html=1;exitX=0.5;exitY=1;exitDx=0;exitDy=0;" edge="1" parent="1">
          <mxGeometry relative="1" as="geometry">
            <mxPoint x="455" y="350" as="targetPoint" />
            <mxPoint x="615" y="200" as="sourcePoint" />
            <Array as="points">
              <mxPoint x="615" y="350" />
            </Array>
          </mxGeometry>
        </mxCell>
        <mxCell id="DyeuLwuIHpsMSFXkWiEa-4" value="Company" style="rounded=0;whiteSpace=wrap;html=1;fillColor=light-dark(#FFE599,var(--ge-dark-color, #121212));" vertex="1" parent="1">
          <mxGeometry x="570" y="150" width="100" height="50" as="geometry" />
        </mxCell>
        <mxCell id="DyeuLwuIHpsMSFXkWiEa-15" style="edgeStyle=orthogonalEdgeStyle;rounded=0;orthogonalLoop=1;jettySize=auto;html=1;exitX=0.5;exitY=1;exitDx=0;exitDy=0;entryX=0;entryY=0.75;entryDx=0;entryDy=0;" edge="1" parent="1" source="DyeuLwuIHpsMSFXkWiEa-7" target="DyeuLwuIHpsMSFXkWiEa-2">
          <mxGeometry relative="1" as="geometry" />
        </mxCell>
        <mxCell id="DyeuLwuIHpsMSFXkWiEa-7" value="CPF" style="ellipse;whiteSpace=wrap;html=1;" vertex="1" parent="1">
          <mxGeometry x="-70" y="60" width="90" height="50" as="geometry" />
        </mxCell>
        <mxCell id="DyeuLwuIHpsMSFXkWiEa-14" style="edgeStyle=orthogonalEdgeStyle;rounded=0;orthogonalLoop=1;jettySize=auto;html=1;exitX=0.5;exitY=1;exitDx=0;exitDy=0;entryX=0.5;entryY=0;entryDx=0;entryDy=0;" edge="1" parent="1" source="DyeuLwuIHpsMSFXkWiEa-8" target="DyeuLwuIHpsMSFXkWiEa-2">
          <mxGeometry relative="1" as="geometry" />
        </mxCell>
        <mxCell id="DyeuLwuIHpsMSFXkWiEa-8" value="Nome" style="ellipse;whiteSpace=wrap;html=1;" vertex="1" parent="1">
          <mxGeometry x="160" y="60" width="90" height="50" as="geometry" />
        </mxCell>
        <mxCell id="DyeuLwuIHpsMSFXkWiEa-16" style="edgeStyle=orthogonalEdgeStyle;rounded=0;orthogonalLoop=1;jettySize=auto;html=1;exitX=0.5;exitY=1;exitDx=0;exitDy=0;entryX=1;entryY=0.75;entryDx=0;entryDy=0;" edge="1" parent="1" source="DyeuLwuIHpsMSFXkWiEa-9" target="DyeuLwuIHpsMSFXkWiEa-2">
          <mxGeometry relative="1" as="geometry">
            <mxPoint x="220" y="200" as="targetPoint" />
          </mxGeometry>
        </mxCell>
        <mxCell id="DyeuLwuIHpsMSFXkWiEa-9" value="Endereço" style="ellipse;whiteSpace=wrap;html=1;" vertex="1" parent="1">
          <mxGeometry x="260" y="60" width="90" height="50" as="geometry" />
        </mxCell>
        <mxCell id="DyeuLwuIHpsMSFXkWiEa-18" style="edgeStyle=orthogonalEdgeStyle;rounded=0;orthogonalLoop=1;jettySize=auto;html=1;exitX=0.5;exitY=1;exitDx=0;exitDy=0;entryX=0.25;entryY=0;entryDx=0;entryDy=0;" edge="1" parent="1" source="DyeuLwuIHpsMSFXkWiEa-17" target="DyeuLwuIHpsMSFXkWiEa-2">
          <mxGeometry relative="1" as="geometry">
            <Array as="points">
              <mxPoint x="95" y="140" />
              <mxPoint x="100" y="140" />
            </Array>
          </mxGeometry>
        </mxCell>
        <mxCell id="DyeuLwuIHpsMSFXkWiEa-17" value="Licença" style="ellipse;whiteSpace=wrap;html=1;" vertex="1" parent="1">
          <mxGeometry x="50" y="60" width="90" height="50" as="geometry" />
        </mxCell>
      </root>
    </mxGraphModel>
  </diagram>
</mxfile>
